<svg width="80" height="15" viewBox="0 0 80 15" fill="none" xmlns="http://www.w3.org/2000/svg">
<g clip-path="url(#clip0_5_1020)">
<path d="M80 10.8163C79.9712 9.77475 79.6112 8.95479 78.9302 8.37924C78.3487 7.88792 77.6499 7.5211 76.8486 7.28623C77.3759 7.04223 77.8629 6.68454 78.3 6.21978C78.8383 5.64548 79.1267 4.84004 79.1576 3.82587V3.82421V3.82255V3.78106C79.1555 3.30593 79.0678 2.86109 78.8967 2.45775C78.7277 2.0598 78.4762 1.69671 78.1492 1.37926C77.7066 0.953515 77.137 0.621546 76.456 0.392903C75.7716 0.163014 74.9859 0.0451656 74.1207 0.0430908H67.7407V14.9987H74.4442C76.1197 14.9862 77.4703 14.6132 78.4592 13.8907C79.4596 13.16 79.978 12.1413 80 10.8636V10.8624V10.8611V10.8163ZM69.1159 1.29544H74.0944C75.2782 1.3054 76.1955 1.54857 76.8198 2.01747C77.4432 2.48389 77.7494 3.09388 77.7558 3.88189V3.9209C77.7346 4.86991 77.3932 5.57203 76.7114 6.06749C76.3247 6.34925 75.8596 6.55465 75.3294 6.67831L75.2316 6.70114V8.13275L75.3434 8.14603C76.2243 8.2506 76.9409 8.47343 77.4737 8.80872C78.2259 9.28344 78.5943 9.93866 78.6007 10.8117V10.852C78.5863 11.7529 78.2284 12.4388 77.5063 12.9467C76.7842 13.4584 75.7677 13.7231 74.4849 13.7331H69.1159V1.29544Z" fill="white"/>
<path d="M64.9814 14.8237L58.0183 0.111266L57.9844 0.0390625H57.9031H56.8214H56.7405L56.7062 0.111266L49.7435 14.8237L49.6597 15.0005H49.8587H50.9391H51.0204L51.0543 14.9283L57.3623 1.60014L61.1392 9.58067H57.3618H57.142L57.2517 9.7674L57.8756 10.8264L57.9124 10.8886H57.9857H61.7584L63.6702 14.9283L63.7045 15.0005H63.7854H64.8662H65.0653L64.9814 14.8237Z" fill="white"/>
<path d="M46.8576 13.6925H37.2602V0.14817V0.0236816H37.1331H36.0527H35.9257V0.14817V14.8755V15H36.0527H46.8576H46.9847V14.8755V13.817V13.6925H46.8576Z" fill="white"/>
<path d="M27.0234 0.0469971H21.3253C20.2953 0.0469971 19.2958 0.244518 18.3551 0.634581C17.4463 1.01095 16.6306 1.5504 15.9296 2.23674C15.2287 2.9235 14.6785 3.72272 14.2944 4.61322C13.8963 5.53485 13.6947 6.51416 13.6947 7.52334C13.6947 8.53253 13.8963 9.51184 14.2944 10.4335C14.6785 11.324 15.2291 12.1232 15.9296 12.8099C16.6306 13.4967 17.4463 14.0357 18.3551 14.4121C19.2958 14.8022 20.2953 14.9997 21.3253 14.9997H27.1504V13.6922H21.3253C19.6435 13.6922 18.0625 13.0506 16.8732 11.8854C15.684 10.7202 15.0292 9.17115 15.0292 7.52334C15.0292 5.87554 15.684 4.32649 16.8732 3.16128C18.0625 1.99607 19.6435 1.35454 21.3253 1.35454H27.1504V0.0469971H27.0234Z" fill="white"/>
<path d="M10.932 6.51562H0.127057H0V6.64011V14.8738V14.9983H0.127057H10.932H11.059V14.8738V13.8152V13.6907H10.932H1.33452V7.82317H10.932H11.059V7.69868V6.64011V6.51562H10.932Z" fill="white"/>
<path d="M10.932 0H0.127057H0V0.124488V1.18305V1.30754H0.127057H10.932H11.059V1.18305V0.124488V0H10.932Z" fill="white"/>
</g>
<defs>
<clipPath id="clip0_5_1020">
<rect width="80" height="15" fill="white"/>
</clipPath>
</defs>
</svg>
